<svg aria-roledescription="timeline" role="graphics-document document" viewBox="0 -61 2790 687.7999877929688" style="max-width: 100%;" xmlns="http://www.w3.org/2000/svg" width="100%" id="graph-div" height="100%"><style>#graph-div{font-family:"trebuchet ms",verdana,arial,sans-serif;font-size:16px;fill:#333;}#graph-div .error-icon{fill:#552222;}#graph-div .error-text{fill:#552222;stroke:#552222;}#graph-div .edge-thickness-normal{stroke-width:2px;}#graph-div .edge-thickness-thick{stroke-width:3.5px;}#graph-div .edge-pattern-solid{stroke-dasharray:0;}#graph-div .edge-pattern-dashed{stroke-dasharray:3;}#graph-div .edge-pattern-dotted{stroke-dasharray:2;}#graph-div .marker{fill:#333333;stroke:#333333;}#graph-div .marker.cross{stroke:#333333;}#graph-div svg{font-family:"trebuchet ms",verdana,arial,sans-serif;font-size:16px;}#graph-div .edge{stroke-width:3;}#graph-div .section--1 rect,#graph-div .section--1 path,#graph-div .section--1 circle,#graph-div .section--1 path{fill:hsl(240, 100%, 76.2745098039%);}#graph-div .section--1 text{fill:#ffffff;}#graph-div .node-icon--1{font-size:40px;color:#ffffff;}#graph-div .section-edge--1{stroke:hsl(240, 100%, 76.2745098039%);}#graph-div .edge-depth--1{stroke-width:17;}#graph-div .section--1 line{stroke:hsl(60, 100%, 86.2745098039%);stroke-width:3;}#graph-div .lineWrapper line{stroke:#ffffff;}#graph-div .disabled,#graph-div .disabled circle,#graph-div .disabled text{fill:lightgray;}#graph-div .disabled text{fill:#efefef;}#graph-div .section-0 rect,#graph-div .section-0 path,#graph-div .section-0 circle,#graph-div .section-0 path{fill:hsl(60, 100%, 73.5294117647%);}#graph-div .section-0 text{fill:black;}#graph-div .node-icon-0{font-size:40px;color:black;}#graph-div .section-edge-0{stroke:hsl(60, 100%, 73.5294117647%);}#graph-div .edge-depth-0{stroke-width:14;}#graph-div .section-0 line{stroke:hsl(240, 100%, 83.5294117647%);stroke-width:3;}#graph-div .lineWrapper line{stroke:black;}#graph-div .disabled,#graph-div .disabled circle,#graph-div .disabled text{fill:lightgray;}#graph-div .disabled text{fill:#efefef;}#graph-div .section-1 rect,#graph-div .section-1 path,#graph-div .section-1 circle,#graph-div .section-1 path{fill:hsl(80, 100%, 76.2745098039%);}#graph-div .section-1 text{fill:black;}#graph-div .node-icon-1{font-size:40px;color:black;}#graph-div .section-edge-1{stroke:hsl(80, 100%, 76.2745098039%);}#graph-div .edge-depth-1{stroke-width:11;}#graph-div .section-1 line{stroke:hsl(260, 100%, 86.2745098039%);stroke-width:3;}#graph-div .lineWrapper line{stroke:black;}#graph-div .disabled,#graph-div .disabled circle,#graph-div .disabled text{fill:lightgray;}#graph-div .disabled text{fill:#efefef;}#graph-div .section-2 rect,#graph-div .section-2 path,#graph-div .section-2 circle,#graph-div .section-2 path{fill:hsl(270, 100%, 76.2745098039%);}#graph-div .section-2 text{fill:#ffffff;}#graph-div .node-icon-2{font-size:40px;color:#ffffff;}#graph-div .section-edge-2{stroke:hsl(270, 100%, 76.2745098039%);}#graph-div .edge-depth-2{stroke-width:8;}#graph-div .section-2 line{stroke:hsl(90, 100%, 86.2745098039%);stroke-width:3;}#graph-div .lineWrapper line{stroke:#ffffff;}#graph-div .disabled,#graph-div .disabled circle,#graph-div .disabled text{fill:lightgray;}#graph-div .disabled text{fill:#efefef;}#graph-div .section-3 rect,#graph-div .section-3 path,#graph-div .section-3 circle,#graph-div .section-3 path{fill:hsl(300, 100%, 76.2745098039%);}#graph-div .section-3 text{fill:black;}#graph-div .node-icon-3{font-size:40px;color:black;}#graph-div .section-edge-3{stroke:hsl(300, 100%, 76.2745098039%);}#graph-div .edge-depth-3{stroke-width:5;}#graph-div .section-3 line{stroke:hsl(120, 100%, 86.2745098039%);stroke-width:3;}#graph-div .lineWrapper line{stroke:black;}#graph-div .disabled,#graph-div .disabled circle,#graph-div .disabled text{fill:lightgray;}#graph-div .disabled text{fill:#efefef;}#graph-div .section-4 rect,#graph-div .section-4 path,#graph-div .section-4 circle,#graph-div .section-4 path{fill:hsl(330, 100%, 76.2745098039%);}#graph-div .section-4 text{fill:black;}#graph-div .node-icon-4{font-size:40px;color:black;}#graph-div .section-edge-4{stroke:hsl(330, 100%, 76.2745098039%);}#graph-div .edge-depth-4{stroke-width:2;}#graph-div .section-4 line{stroke:hsl(150, 100%, 86.2745098039%);stroke-width:3;}#graph-div .lineWrapper line{stroke:black;}#graph-div .disabled,#graph-div .disabled circle,#graph-div .disabled text{fill:lightgray;}#graph-div .disabled text{fill:#efefef;}#graph-div .section-5 rect,#graph-div .section-5 path,#graph-div .section-5 circle,#graph-div .section-5 path{fill:hsl(0, 100%, 76.2745098039%);}#graph-div .section-5 text{fill:black;}#graph-div .node-icon-5{font-size:40px;color:black;}#graph-div .section-edge-5{stroke:hsl(0, 100%, 76.2745098039%);}#graph-div .edge-depth-5{stroke-width:-1;}#graph-div .section-5 line{stroke:hsl(180, 100%, 86.2745098039%);stroke-width:3;}#graph-div .lineWrapper line{stroke:black;}#graph-div .disabled,#graph-div .disabled circle,#graph-div .disabled text{fill:lightgray;}#graph-div .disabled text{fill:#efefef;}#graph-div .section-6 rect,#graph-div .section-6 path,#graph-div .section-6 circle,#graph-div .section-6 path{fill:hsl(30, 100%, 76.2745098039%);}#graph-div .section-6 text{fill:black;}#graph-div .node-icon-6{font-size:40px;color:black;}#graph-div .section-edge-6{stroke:hsl(30, 100%, 76.2745098039%);}#graph-div .edge-depth-6{stroke-width:-4;}#graph-div .section-6 line{stroke:hsl(210, 100%, 86.2745098039%);stroke-width:3;}#graph-div .lineWrapper line{stroke:black;}#graph-div .disabled,#graph-div .disabled circle,#graph-div .disabled text{fill:lightgray;}#graph-div .disabled text{fill:#efefef;}#graph-div .section-7 rect,#graph-div .section-7 path,#graph-div .section-7 circle,#graph-div .section-7 path{fill:hsl(90, 100%, 76.2745098039%);}#graph-div .section-7 text{fill:black;}#graph-div .node-icon-7{font-size:40px;color:black;}#graph-div .section-edge-7{stroke:hsl(90, 100%, 76.2745098039%);}#graph-div .edge-depth-7{stroke-width:-7;}#graph-div .section-7 line{stroke:hsl(270, 100%, 86.2745098039%);stroke-width:3;}#graph-div .lineWrapper line{stroke:black;}#graph-div .disabled,#graph-div .disabled circle,#graph-div .disabled text{fill:lightgray;}#graph-div .disabled text{fill:#efefef;}#graph-div .section-8 rect,#graph-div .section-8 path,#graph-div .section-8 circle,#graph-div .section-8 path{fill:hsl(150, 100%, 76.2745098039%);}#graph-div .section-8 text{fill:black;}#graph-div .node-icon-8{font-size:40px;color:black;}#graph-div .section-edge-8{stroke:hsl(150, 100%, 76.2745098039%);}#graph-div .edge-depth-8{stroke-width:-10;}#graph-div .section-8 line{stroke:hsl(330, 100%, 86.2745098039%);stroke-width:3;}#graph-div .lineWrapper line{stroke:black;}#graph-div .disabled,#graph-div .disabled circle,#graph-div .disabled text{fill:lightgray;}#graph-div .disabled text{fill:#efefef;}#graph-div .section-9 rect,#graph-div .section-9 path,#graph-div .section-9 circle,#graph-div .section-9 path{fill:hsl(180, 100%, 76.2745098039%);}#graph-div .section-9 text{fill:black;}#graph-div .node-icon-9{font-size:40px;color:black;}#graph-div .section-edge-9{stroke:hsl(180, 100%, 76.2745098039%);}#graph-div .edge-depth-9{stroke-width:-13;}#graph-div .section-9 line{stroke:hsl(0, 100%, 86.2745098039%);stroke-width:3;}#graph-div .lineWrapper line{stroke:black;}#graph-div .disabled,#graph-div .disabled circle,#graph-div .disabled text{fill:lightgray;}#graph-div .disabled text{fill:#efefef;}#graph-div .section-10 rect,#graph-div .section-10 path,#graph-div .section-10 circle,#graph-div .section-10 path{fill:hsl(210, 100%, 76.2745098039%);}#graph-div .section-10 text{fill:black;}#graph-div .node-icon-10{font-size:40px;color:black;}#graph-div .section-edge-10{stroke:hsl(210, 100%, 76.2745098039%);}#graph-div .edge-depth-10{stroke-width:-16;}#graph-div .section-10 line{stroke:hsl(30, 100%, 86.2745098039%);stroke-width:3;}#graph-div .lineWrapper line{stroke:black;}#graph-div .disabled,#graph-div .disabled circle,#graph-div .disabled text{fill:lightgray;}#graph-div .disabled text{fill:#efefef;}#graph-div .section-root rect,#graph-div .section-root path,#graph-div .section-root circle{fill:hsl(240, 100%, 46.2745098039%);}#graph-div .section-root text{fill:#ffffff;}#graph-div .icon-container{height:100%;display:flex;justify-content:center;align-items:center;}#graph-div .edge{fill:none;}#graph-div .eventWrapper{filter:brightness(120%);}#graph-div :root{--mermaid-font-family:"trebuchet ms",verdana,arial,sans-serif;}</style><g></g><g></g><defs><marker orient="auto" markerHeight="4" markerWidth="6" refY="2" refX="5" id="arrowhead"><path d="M 0,0 V 4 L6,2 Z"></path></marker></defs><g transform="translate(100, 50)"><g class="timeline-node section--1"><g><path d="M0 62.8 v-57.8 q0,-5 5,-5 h380 q5,0 5,5 v62.8 H0 Z" class="node-bkg node-undefined" id="node-undefined"></path><line y2="67.8" x2="390" y1="67.8" x1="0" class="node-line--1"></line></g><g transform="translate(195, 10)"><text text-anchor="middle" dominant-baseline="middle" alignment-baseline="middle" dy="1em"><tspan dy="1em" x="0">Pré-1950s</tspan></text></g></g></g><g transform="translate(100, 167.8)" class="taskWrapper"><g class="timeline-node section--1"><g><path d="M0 62.8 v-57.8 q0,-5 5,-5 h180 q5,0 5,5 v62.8 H0 Z" class="node-bkg node-undefined" id="node-undefined"></path><line y2="67.8" x2="190" y1="67.8" x1="0" class="node-line--1"></line></g><g transform="translate(95, 10)"><text text-anchor="middle" dominant-baseline="middle" alignment-baseline="middle" dy="1em"><tspan dy="1em" x="0">1900</tspan></text></g></g></g><g class="lineWrapper"><line stroke-dasharray="5,5" marker-end="url(#arrowhead)" stroke="black" stroke-width="2" y2="576.7999908447266" x2="195" y1="235.60000000000002" x1="195"></line></g><g transform="translate(100, 367.8)" class="eventWrapper"><g class="timeline-node section--1"><g><path d="M0 77.99999694824218 v-72.99999694824218 q0,-5 5,-5 h180 q5,0 5,5 v77.99999694824218 H0 Z" class="node-bkg node-undefined" id="node-undefined"></path><line y2="82.99999694824218" x2="190" y1="82.99999694824218" x1="0" class="node-line--1"></line></g><g transform="translate(95, 10)"><text text-anchor="middle" dominant-baseline="middle" alignment-baseline="middle" dy="1em"><tspan dy="1em" x="0">Uso   de   lanternas</tspan><tspan dy="1.1em" x="0">mágicas   e   rádios   na</tspan><tspan dy="1.1em" x="0">educação.</tspan></text></g></g></g><g transform="translate(300, 167.8)" class="taskWrapper"><g class="timeline-node section--1"><g><path d="M0 62.8 v-57.8 q0,-5 5,-5 h180 q5,0 5,5 v62.8 H0 Z" class="node-bkg node-undefined" id="node-undefined"></path><line y2="67.8" x2="190" y1="67.8" x1="0" class="node-line--1"></line></g><g transform="translate(95, 10)"><text text-anchor="middle" dominant-baseline="middle" alignment-baseline="middle" dy="1em"><tspan dy="1em" x="0">1920</tspan></text></g></g></g><g class="lineWrapper"><line stroke-dasharray="5,5" marker-end="url(#arrowhead)" stroke="black" stroke-width="2" y2="576.7999908447266" x2="395" y1="235.60000000000002" x1="395"></line></g><g transform="translate(300, 367.8)" class="eventWrapper"><g class="timeline-node section--1"><g><path d="M0 77.99999694824218 v-72.99999694824218 q0,-5 5,-5 h180 q5,0 5,5 v77.99999694824218 H0 Z" class="node-bkg node-undefined" id="node-undefined"></path><line y2="82.99999694824218" x2="190" y1="82.99999694824218" x1="0" class="node-line--1"></line></g><g transform="translate(95, 10)"><text text-anchor="middle" dominant-baseline="middle" alignment-baseline="middle" dy="1em"><tspan dy="1em" x="0">Filmes   educacionais</tspan><tspan dy="1.1em" x="0">se   tornam</tspan><tspan dy="1.1em" x="0">populares.</tspan></text></g></g></g><g transform="translate(500, 50)"><g class="timeline-node section-0"><g><path d="M0 62.8 v-57.8 q0,-5 5,-5 h380 q5,0 5,5 v62.8 H0 Z" class="node-bkg node-undefined" id="node-undefined"></path><line y2="67.8" x2="390" y1="67.8" x1="0" class="node-line-0"></line></g><g transform="translate(195, 10)"><text text-anchor="middle" dominant-baseline="middle" alignment-baseline="middle" dy="1em"><tspan dy="1em" x="0">1950s-1970s</tspan></text></g></g></g><g transform="translate(500, 167.8)" class="taskWrapper"><g class="timeline-node section-0"><g><path d="M0 62.8 v-57.8 q0,-5 5,-5 h180 q5,0 5,5 v62.8 H0 Z" class="node-bkg node-undefined" id="node-undefined"></path><line y2="67.8" x2="190" y1="67.8" x1="0" class="node-line-0"></line></g><g transform="translate(95, 10)"><text text-anchor="middle" dominant-baseline="middle" alignment-baseline="middle" dy="1em"><tspan dy="1em" x="0">1954</tspan></text></g></g></g><g class="lineWrapper"><line stroke-dasharray="5,5" marker-end="url(#arrowhead)" stroke="black" stroke-width="2" y2="576.7999908447266" x2="595" y1="235.60000000000002" x1="595"></line></g><g transform="translate(500, 367.8)" class="eventWrapper"><g class="timeline-node section-0"><g><path d="M0 77.99999694824218 v-72.99999694824218 q0,-5 5,-5 h180 q5,0 5,5 v77.99999694824218 H0 Z" class="node-bkg node-undefined" id="node-undefined"></path><line y2="82.99999694824218" x2="190" y1="82.99999694824218" x1="0" class="node-line-0"></line></g><g transform="translate(95, 10)"><text text-anchor="middle" dominant-baseline="middle" alignment-baseline="middle" dy="1em"><tspan dy="1em" x="0">A   televisão   é</tspan><tspan dy="1.1em" x="0">introduzida   nas   salas</tspan><tspan dy="1.1em" x="0">de   aula.</tspan></text></g></g></g><g transform="translate(700, 167.8)" class="taskWrapper"><g class="timeline-node section-0"><g><path d="M0 62.8 v-57.8 q0,-5 5,-5 h180 q5,0 5,5 v62.8 H0 Z" class="node-bkg node-undefined" id="node-undefined"></path><line y2="67.8" x2="190" y1="67.8" x1="0" class="node-line-0"></line></g><g transform="translate(95, 10)"><text text-anchor="middle" dominant-baseline="middle" alignment-baseline="middle" dy="1em"><tspan dy="1em" x="0">1960s</tspan></text></g></g></g><g class="lineWrapper"><line stroke-dasharray="5,5" marker-end="url(#arrowhead)" stroke="black" stroke-width="2" y2="576.7999908447266" x2="795" y1="235.60000000000002" x1="795"></line></g><g transform="translate(700, 367.8)" class="eventWrapper"><g class="timeline-node section-0"><g><path d="M0 77.99999694824218 v-72.99999694824218 q0,-5 5,-5 h180 q5,0 5,5 v77.99999694824218 H0 Z" class="node-bkg node-undefined" id="node-undefined"></path><line y2="82.99999694824218" x2="190" y1="82.99999694824218" x1="0" class="node-line-0"></line></g><g transform="translate(95, 10)"><text text-anchor="middle" dominant-baseline="middle" alignment-baseline="middle" dy="1em"><tspan dy="1em" x="0">Surgem   os   primeiros</tspan><tspan dy="1.1em" x="0">computadores</tspan><tspan dy="1.1em" x="0">educacionais.</tspan></text></g></g></g><g transform="translate(900, 50)"><g class="timeline-node section-1"><g><path d="M0 62.8 v-57.8 q0,-5 5,-5 h380 q5,0 5,5 v62.8 H0 Z" class="node-bkg node-undefined" id="node-undefined"></path><line y2="67.8" x2="390" y1="67.8" x1="0" class="node-line-1"></line></g><g transform="translate(195, 10)"><text text-anchor="middle" dominant-baseline="middle" alignment-baseline="middle" dy="1em"><tspan dy="1em" x="0">1980s-1990s</tspan></text></g></g></g><g transform="translate(900, 167.8)" class="taskWrapper"><g class="timeline-node section-1"><g><path d="M0 62.8 v-57.8 q0,-5 5,-5 h180 q5,0 5,5 v62.8 H0 Z" class="node-bkg node-undefined" id="node-undefined"></path><line y2="67.8" x2="190" y1="67.8" x1="0" class="node-line-1"></line></g><g transform="translate(95, 10)"><text text-anchor="middle" dominant-baseline="middle" alignment-baseline="middle" dy="1em"><tspan dy="1em" x="0">1980s</tspan></text></g></g></g><g class="lineWrapper"><line stroke-dasharray="5,5" marker-end="url(#arrowhead)" stroke="black" stroke-width="2" y2="576.7999908447266" x2="995" y1="235.60000000000002" x1="995"></line></g><g transform="translate(900, 367.8)" class="eventWrapper"><g class="timeline-node section-1"><g><path d="M0 77.99999694824218 v-72.99999694824218 q0,-5 5,-5 h180 q5,0 5,5 v77.99999694824218 H0 Z" class="node-bkg node-undefined" id="node-undefined"></path><line y2="82.99999694824218" x2="190" y1="82.99999694824218" x1="0" class="node-line-1"></line></g><g transform="translate(95, 10)"><text text-anchor="middle" dominant-baseline="middle" alignment-baseline="middle" dy="1em"><tspan dy="1em" x="0">Uso   crescente   de</tspan><tspan dy="1.1em" x="0">computadores</tspan><tspan dy="1.1em" x="0">pessoais   nas   escolas.</tspan></text></g></g></g><g transform="translate(1100, 167.8)" class="taskWrapper"><g class="timeline-node section-1"><g><path d="M0 62.8 v-57.8 q0,-5 5,-5 h180 q5,0 5,5 v62.8 H0 Z" class="node-bkg node-undefined" id="node-undefined"></path><line y2="67.8" x2="190" y1="67.8" x1="0" class="node-line-1"></line></g><g transform="translate(95, 10)"><text text-anchor="middle" dominant-baseline="middle" alignment-baseline="middle" dy="1em"><tspan dy="1em" x="0">1990s</tspan></text></g></g></g><g class="lineWrapper"><line stroke-dasharray="5,5" marker-end="url(#arrowhead)" stroke="black" stroke-width="2" y2="576.7999908447266" x2="1195" y1="235.60000000000002" x1="1195"></line></g><g transform="translate(1100, 367.8)" class="eventWrapper"><g class="timeline-node section-1"><g><path d="M0 77.99999694824218 v-72.99999694824218 q0,-5 5,-5 h180 q5,0 5,5 v77.99999694824218 H0 Z" class="node-bkg node-undefined" id="node-undefined"></path><line y2="82.99999694824218" x2="190" y1="82.99999694824218" x1="0" class="node-line-1"></line></g><g transform="translate(95, 10)"><text text-anchor="middle" dominant-baseline="middle" alignment-baseline="middle" dy="1em"><tspan dy="1em" x="0">Internet   começa   a</tspan><tspan dy="1.1em" x="0">ser   usada   para   fins</tspan><tspan dy="1.1em" x="0">educacionais.</tspan></text></g></g></g><g transform="translate(1300, 50)"><g class="timeline-node section-2"><g><path d="M0 62.8 v-57.8 q0,-5 5,-5 h380 q5,0 5,5 v62.8 H0 Z" class="node-bkg node-undefined" id="node-undefined"></path><line y2="67.8" x2="390" y1="67.8" x1="0" class="node-line-2"></line></g><g transform="translate(195, 10)"><text text-anchor="middle" dominant-baseline="middle" alignment-baseline="middle" dy="1em"><tspan dy="1em" x="0">2000s</tspan></text></g></g></g><g transform="translate(1300, 167.8)" class="taskWrapper"><g class="timeline-node section-2"><g><path d="M0 62.8 v-57.8 q0,-5 5,-5 h180 q5,0 5,5 v62.8 H0 Z" class="node-bkg node-undefined" id="node-undefined"></path><line y2="67.8" x2="190" y1="67.8" x1="0" class="node-line-2"></line></g><g transform="translate(95, 10)"><text text-anchor="middle" dominant-baseline="middle" alignment-baseline="middle" dy="1em"><tspan dy="1em" x="0">2005</tspan></text></g></g></g><g class="lineWrapper"><line stroke-dasharray="5,5" marker-end="url(#arrowhead)" stroke="black" stroke-width="2" y2="576.7999908447266" x2="1395" y1="235.60000000000002" x1="1395"></line></g><g transform="translate(1300, 367.8)" class="eventWrapper"><g class="timeline-node section-2"><g><path d="M0 113.19999389648437 v-108.19999389648437 q0,-5 5,-5 h180 q5,0 5,5 v113.19999389648437 H0 Z" class="node-bkg node-undefined" id="node-undefined"></path><line y2="118.19999389648437" x2="190" y1="118.19999389648437" x1="0" class="node-line-2"></line></g><g transform="translate(95, 10)"><text text-anchor="middle" dominant-baseline="middle" alignment-baseline="middle" dy="1em"><tspan dy="1em" x="0">Surgimento   da</tspan><tspan dy="1.1em" x="0">aprendizagem   online</tspan><tspan dy="1.1em" x="0">e   dos   LMS   (Learning</tspan><tspan dy="1.1em" x="0">Management</tspan><tspan dy="1.1em" x="0">Systems).</tspan></text></g></g></g><g transform="translate(1500, 167.8)" class="taskWrapper"><g class="timeline-node section-2"><g><path d="M0 62.8 v-57.8 q0,-5 5,-5 h180 q5,0 5,5 v62.8 H0 Z" class="node-bkg node-undefined" id="node-undefined"></path><line y2="67.8" x2="190" y1="67.8" x1="0" class="node-line-2"></line></g><g transform="translate(95, 10)"><text text-anchor="middle" dominant-baseline="middle" alignment-baseline="middle" dy="1em"><tspan dy="1em" x="0">2007</tspan></text></g></g></g><g class="lineWrapper"><line stroke-dasharray="5,5" marker-end="url(#arrowhead)" stroke="black" stroke-width="2" y2="576.7999908447266" x2="1595" y1="235.60000000000002" x1="1595"></line></g><g transform="translate(1500, 367.8)" class="eventWrapper"><g class="timeline-node section-2"><g><path d="M0 130.79999237060548 v-125.79999237060548 q0,-5 5,-5 h180 q5,0 5,5 v130.79999237060548 H0 Z" class="node-bkg node-undefined" id="node-undefined"></path><line y2="135.79999237060548" x2="190" y1="135.79999237060548" x1="0" class="node-line-2"></line></g><g transform="translate(95, 10)"><text text-anchor="middle" dominant-baseline="middle" alignment-baseline="middle" dy="1em"><tspan dy="1em" x="0">Lançamento   do</tspan><tspan dy="1.1em" x="0">iPhone,</tspan><tspan dy="1.1em" x="0">impulsionando   o</tspan><tspan dy="1.1em" x="0">desenvolvimento   de</tspan><tspan dy="1.1em" x="0">aplicativos</tspan><tspan dy="1.1em" x="0">educacionais.</tspan></text></g></g></g><g transform="translate(1700, 50)"><g class="timeline-node section-3"><g><path d="M0 62.8 v-57.8 q0,-5 5,-5 h580 q5,0 5,5 v62.8 H0 Z" class="node-bkg node-undefined" id="node-undefined"></path><line y2="67.8" x2="590" y1="67.8" x1="0" class="node-line-3"></line></g><g transform="translate(295, 10)"><text text-anchor="middle" dominant-baseline="middle" alignment-baseline="middle" dy="1em"><tspan dy="1em" x="0">2010s</tspan></text></g></g></g><g transform="translate(1700, 167.8)" class="taskWrapper"><g class="timeline-node section-3"><g><path d="M0 62.8 v-57.8 q0,-5 5,-5 h180 q5,0 5,5 v62.8 H0 Z" class="node-bkg node-undefined" id="node-undefined"></path><line y2="67.8" x2="190" y1="67.8" x1="0" class="node-line-3"></line></g><g transform="translate(95, 10)"><text text-anchor="middle" dominant-baseline="middle" alignment-baseline="middle" dy="1em"><tspan dy="1em" x="0">2010</tspan></text></g></g></g><g class="lineWrapper"><line stroke-dasharray="5,5" marker-end="url(#arrowhead)" stroke="black" stroke-width="2" y2="576.7999908447266" x2="1795" y1="235.60000000000002" x1="1795"></line></g><g transform="translate(1700, 367.8)" class="eventWrapper"><g class="timeline-node section-3"><g><path d="M0 113.19999389648437 v-108.19999389648437 q0,-5 5,-5 h180 q5,0 5,5 v113.19999389648437 H0 Z" class="node-bkg node-undefined" id="node-undefined"></path><line y2="118.19999389648437" x2="190" y1="118.19999389648437" x1="0" class="node-line-3"></line></g><g transform="translate(95, 10)"><text text-anchor="middle" dominant-baseline="middle" alignment-baseline="middle" dy="1em"><tspan dy="1em" x="0">Aprendizagem   móvel</tspan><tspan dy="1.1em" x="0">se   torna   popular</tspan><tspan dy="1.1em" x="0">com   o   aumento   do</tspan><tspan dy="1.1em" x="0">uso   de   tablets   e</tspan><tspan dy="1.1em" x="0">smartphones.</tspan></text></g></g></g><g transform="translate(1900, 167.8)" class="taskWrapper"><g class="timeline-node section-3"><g><path d="M0 62.8 v-57.8 q0,-5 5,-5 h180 q5,0 5,5 v62.8 H0 Z" class="node-bkg node-undefined" id="node-undefined"></path><line y2="67.8" x2="190" y1="67.8" x1="0" class="node-line-3"></line></g><g transform="translate(95, 10)"><text text-anchor="middle" dominant-baseline="middle" alignment-baseline="middle" dy="1em"><tspan dy="1em" x="0">2012</tspan></text></g></g></g><g class="lineWrapper"><line stroke-dasharray="5,5" marker-end="url(#arrowhead)" stroke="black" stroke-width="2" y2="576.7999908447266" x2="1995" y1="235.60000000000002" x1="1995"></line></g><g transform="translate(1900, 367.8)" class="eventWrapper"><g class="timeline-node section-3"><g><path d="M0 95.59999542236328 v-90.59999542236328 q0,-5 5,-5 h180 q5,0 5,5 v95.59999542236328 H0 Z" class="node-bkg node-undefined" id="node-undefined"></path><line y2="100.59999542236328" x2="190" y1="100.59999542236328" x1="0" class="node-line-3"></line></g><g transform="translate(95, 10)"><text text-anchor="middle" dominant-baseline="middle" alignment-baseline="middle" dy="1em"><tspan dy="1em" x="0">Surgimento   de</tspan><tspan dy="1.1em" x="0">MOOCs   (Massive</tspan><tspan dy="1.1em" x="0">Open   Online</tspan><tspan dy="1.1em" x="0">Courses).</tspan></text></g></g></g><g transform="translate(2100, 167.8)" class="taskWrapper"><g class="timeline-node section-3"><g><path d="M0 62.8 v-57.8 q0,-5 5,-5 h180 q5,0 5,5 v62.8 H0 Z" class="node-bkg node-undefined" id="node-undefined"></path><line y2="67.8" x2="190" y1="67.8" x1="0" class="node-line-3"></line></g><g transform="translate(95, 10)"><text text-anchor="middle" dominant-baseline="middle" alignment-baseline="middle" dy="1em"><tspan dy="1em" x="0">2015</tspan></text></g></g></g><g class="lineWrapper"><line stroke-dasharray="5,5" marker-end="url(#arrowhead)" stroke="black" stroke-width="2" y2="576.7999908447266" x2="2195" y1="235.60000000000002" x1="2195"></line></g><g transform="translate(2100, 367.8)" class="eventWrapper"><g class="timeline-node section-3"><g><path d="M0 95.59999542236328 v-90.59999542236328 q0,-5 5,-5 h180 q5,0 5,5 v95.59999542236328 H0 Z" class="node-bkg node-undefined" id="node-undefined"></path><line y2="100.59999542236328" x2="190" y1="100.59999542236328" x1="0" class="node-line-3"></line></g><g transform="translate(95, 10)"><text text-anchor="middle" dominant-baseline="middle" alignment-baseline="middle" dy="1em"><tspan dy="1em" x="0">Realidade   virtual   e</tspan><tspan dy="1.1em" x="0">aumentada</tspan><tspan dy="1.1em" x="0">começam   a   ser</tspan><tspan dy="1.1em" x="0">usadas   na   educação.</tspan></text></g></g></g><g transform="translate(2300, 50)"><g class="timeline-node section-4"><g><path d="M0 62.8 v-57.8 q0,-5 5,-5 h380 q5,0 5,5 v62.8 H0 Z" class="node-bkg node-undefined" id="node-undefined"></path><line y2="67.8" x2="390" y1="67.8" x1="0" class="node-line-4"></line></g><g transform="translate(195, 10)"><text text-anchor="middle" dominant-baseline="middle" alignment-baseline="middle" dy="1em"><tspan dy="1em" x="0">2020s</tspan></text></g></g></g><g transform="translate(2300, 167.8)" class="taskWrapper"><g class="timeline-node section-4"><g><path d="M0 62.8 v-57.8 q0,-5 5,-5 h180 q5,0 5,5 v62.8 H0 Z" class="node-bkg node-undefined" id="node-undefined"></path><line y2="67.8" x2="190" y1="67.8" x1="0" class="node-line-4"></line></g><g transform="translate(95, 10)"><text text-anchor="middle" dominant-baseline="middle" alignment-baseline="middle" dy="1em"><tspan dy="1em" x="0">2020</tspan></text></g></g></g><g class="lineWrapper"><line stroke-dasharray="5,5" marker-end="url(#arrowhead)" stroke="black" stroke-width="2" y2="576.7999908447266" x2="2395" y1="235.60000000000002" x1="2395"></line></g><g transform="translate(2300, 367.8)" class="eventWrapper"><g class="timeline-node section-4"><g><path d="M0 113.19999389648437 v-108.19999389648437 q0,-5 5,-5 h180 q5,0 5,5 v113.19999389648437 H0 Z" class="node-bkg node-undefined" id="node-undefined"></path><line y2="118.19999389648437" x2="190" y1="118.19999389648437" x1="0" class="node-line-4"></line></g><g transform="translate(95, 10)"><text text-anchor="middle" dominant-baseline="middle" alignment-baseline="middle" dy="1em"><tspan dy="1em" x="0">Pandemia   de</tspan><tspan dy="1.1em" x="0">COVID-19   acelera   a</tspan><tspan dy="1.1em" x="0">adoção   de</tspan><tspan dy="1.1em" x="0">tecnologia   na</tspan><tspan dy="1.1em" x="0">educação   remota.</tspan></text></g></g></g><g transform="translate(2500, 167.8)" class="taskWrapper"><g class="timeline-node section-4"><g><path d="M0 62.8 v-57.8 q0,-5 5,-5 h180 q5,0 5,5 v62.8 H0 Z" class="node-bkg node-undefined" id="node-undefined"></path><line y2="67.8" x2="190" y1="67.8" x1="0" class="node-line-4"></line></g><g transform="translate(95, 10)"><text text-anchor="middle" dominant-baseline="middle" alignment-baseline="middle" dy="1em"><tspan dy="1em" x="0">2022</tspan></text></g></g></g><g class="lineWrapper"><line stroke-dasharray="5,5" marker-end="url(#arrowhead)" stroke="black" stroke-width="2" y2="576.7999908447266" x2="2595" y1="235.60000000000002" x1="2595"></line></g><g transform="translate(2500, 367.8)" class="eventWrapper"><g class="timeline-node section-4"><g><path d="M0 148.39999084472657 v-143.39999084472657 q0,-5 5,-5 h180 q5,0 5,5 v148.39999084472657 H0 Z" class="node-bkg node-undefined" id="node-undefined"></path><line y2="153.39999084472657" x2="190" y1="153.39999084472657" x1="0" class="node-line-4"></line></g><g transform="translate(95, 10)"><text text-anchor="middle" dominant-baseline="middle" alignment-baseline="middle" dy="1em"><tspan dy="1em" x="0">Inteligência</tspan><tspan dy="1.1em" x="0">Artificial   e   Machine</tspan><tspan dy="1.1em" x="0">Learning   são</tspan><tspan dy="1.1em" x="0">amplamente</tspan><tspan dy="1.1em" x="0">integradas   em</tspan><tspan dy="1.1em" x="0">sistemas</tspan><tspan dy="1.1em" x="0">educacionais.</tspan></text></g></g></g><text y="20" font-weight="bold" font-size="4ex" x="1245">Histórico do Uso da Tecnologia Educacional na Educação</text><g class="lineWrapper"><line marker-end="url(#arrowhead)" stroke="black" stroke-width="4" y2="285.6" x2="2740" y1="285.6" x1="50"></line></g></svg>